<svg xmlns="http://www.w3.org/2000/svg" width="32" height="32" viewBox="0 0 32 32">
    <g fill="none" fill-rule="evenodd">
        <path d="M0 0H32V32H0z"/>
        <path fill="#FFF" fill-rule="nonzero" d="M16 0c8.837 0 16 7.163 16 16s-7.163 16-16 16S0 24.837 0 16 7.163 0 16 0zm4.778 20h-8.556c-3.2 0-5.586 1.144-7.093 3.07-.073.092-.115.2-.129.309C7.358 27.349 11.626 30 16.5 30s9.142-2.652 11.5-6.621c-.014-.11-.056-.217-.129-.309C26.364 21.144 23.98 20 20.778 20zM16 5c-3.314 0-6 2.686-6 6s2.686 6 6 6 6-2.686 6-6-2.686-6-6-6z"/>
    </g>
</svg>
