<svg xmlns="http://www.w3.org/2000/svg" width="32" height="32" viewBox="0 0 32 32">
    <g fill="none" fill-rule="evenodd">
        <path d="M0 0H32V32H0z"/>
        <path fill="#FFF" fill-rule="nonzero" d="M16 32c8.82 0 16-7.18 16-16S24.82 0 16 0 0 7.18 0 16s7.18 16 16 16zM13.797 6.531c0-.225.185-.41.41-.41h3.586c.225 0 .41.185.41.41v11.98c0 .225-.185.41-.41.41h-3.586c-.225 0-.41-.185-.41-.41V6.53zM16 20.418c1.506 0 2.732 1.227 2.732 2.733 0 1.505-1.226 2.732-2.732 2.732-1.506 0-2.732-1.227-2.732-2.732 0-1.506 1.226-2.733 2.732-2.733z"/>
    </g>
</svg>
