<svg xmlns="http://www.w3.org/2000/svg" width="60" height="60" viewBox="0 0 60 60">
    <defs>
        <filter id="prefix__a" width="196.6%" height="196.6%" x="-48.3%" y="-48.3%" filterUnits="objectBoundingBox">
            <feGaussianBlur in="SourceGraphic" stdDeviation="8"/>
        </filter>
    </defs>
    <g fill="none">
        <path fill="#FF6D00" fill-opacity=".5" d="M24.857 0c13.728 0 24.857 11.129 24.857 24.857S38.585 49.714 24.857 49.714 0 38.585 0 24.857 11.129 0 24.857 0zm2.205 8.018c-10.517 0-19.044 8.527-19.044 19.044 0 10.518 8.527 19.044 19.044 19.044 10.518 0 19.044-8.526 19.044-19.044 0-10.517-8.526-19.044-19.044-19.044z" filter="url(#prefix__a)" transform="translate(5.143 5.143) rotate(180 24.857 24.857)"/>
        <path fill="#FF6D00" fill-opacity=".2" d="M24.857 49.714C11.13 49.714 0 38.585 0 24.857S11.129 0 24.857 0s24.857 11.129 24.857 24.857-11.129 24.857-24.857 24.857zm-2.205-8.018c10.518 0 19.044-8.526 19.044-19.044S33.17 3.608 22.652 3.608 3.608 12.134 3.608 22.652s8.526 19.044 19.044 19.044z" transform="translate(5.143 5.143)"/>
        <path fill="#FF6D00" fill-opacity=".5" d="M24.857 49.714C11.13 49.714 0 38.585 0 24.857S11.129 0 24.857 0s24.857 11.129 24.857 24.857-11.129 24.857-24.857 24.857zm-.4-4.81c11.292 0 20.446-9.155 20.446-20.448 0-11.292-9.154-20.447-20.447-20.447-11.292 0-20.447 9.155-20.447 20.447 0 11.293 9.155 20.447 20.447 20.447z" transform="translate(5.143 5.143)"/>
        <path fill="#FF7B18" fill-opacity=".8" d="M24.643 48.857C11.27 48.857.429 38.016.429 24.643S11.269.429 24.643.429c13.373 0 24.214 10.84 24.214 24.214 0 13.373-10.841 24.214-24.214 24.214zm-.807-2.421c12.481 0 22.6-10.119 22.6-22.6 0-12.482-10.119-22.6-22.6-22.6-12.482 0-22.6 10.118-22.6 22.6 0 12.481 10.118 22.6 22.6 22.6z" transform="translate(5.143 5.143)"/>
        <path fill="#FF8C18" d="M23.786 47.143c-12.9 0-23.357-10.457-23.357-23.357C.429 10.886 10.886.429 23.786.429c12.9 0 23.357 10.457 23.357 23.357 0 12.9-10.457 23.357-23.357 23.357zm-.4-1.198c12.46 0 22.56-10.1 22.56-22.559 0-12.458-10.1-22.558-22.56-22.558C10.928.828.828 10.928.828 23.386c0 12.46 10.1 22.56 22.558 22.56z" transform="translate(5.143 5.143)"/>
    </g>
</svg>
